<mxfile host="app.diagrams.net" modified="2023-04-01T16:09:07.798Z" agent="Mozilla/5.0 (Macintosh; Intel Mac OS X 10_15_7) AppleWebKit/537.36 (KHTML, like Gecko) Chrome/111.0.0.0 Safari/537.36" version="21.1.1" etag="HX5ZpbrYUtPLHZXph65X" type="github">
  <diagram name="Page-1" id="P5E-NRFfQXW7laD2gimy">
    <mxGraphModel>
      <root>
        <mxCell id="0" />
        <mxCell id="1" parent="0" />
      </root>
    </mxGraphModel>
  </diagram>
</mxfile>
